<svg width="40" height="40" viewBox="0 0 40 40" fill="none" xmlns="http://www.w3.org/2000/svg">
<path d="M28.8164 6.90005L28.6997 13.2167C28.6831 14.0833 29.2332 15.2334 29.9332 15.75L34.0665 18.8833C36.7165 20.8833 36.2831 23.3334 33.1165 24.3334L27.7331 26.0167C26.8331 26.3 25.8831 27.2834 25.6498 28.2L24.3665 33.1C23.3498 36.9667 20.8164 37.35 18.7164 33.95L15.7831 29.2C15.2497 28.3333 13.9831 27.6834 12.9831 27.7334L7.41648 28.0167C3.43314 28.2167 2.2998 25.9167 4.8998 22.8834L8.19976 19.05C8.81643 18.3333 9.09975 17 8.81642 16.1L7.13317 10.7167C6.14984 7.55001 7.91648 5.80003 11.0665 6.83337L15.9832 8.45003C16.8165 8.7167 18.0665 8.53335 18.7665 8.01668L23.8998 4.31668C26.6665 2.31668 28.8831 3.48338 28.8164 6.90005Z" stroke="#065494" stroke-width="1.5" stroke-linecap="round" stroke-linejoin="round"/>
<path d="M36.5163 36.6667L31.4663 31.6167" stroke="#065494" stroke-width="1.5" stroke-linecap="round" stroke-linejoin="round"/>
</svg>
