<svg width="40" height="40" viewBox="0 0 40 40" fill="none" xmlns="http://www.w3.org/2000/svg">
<path d="M13.3335 3.33333V8.33333" stroke="#065494" stroke-width="1.5" stroke-miterlimit="10" stroke-linecap="round" stroke-linejoin="round"/>
<path d="M26.6665 3.33333V8.33333" stroke="#065494" stroke-width="1.5" stroke-miterlimit="10" stroke-linecap="round" stroke-linejoin="round"/>
<path d="M35 14.1667V22.7167C33.5167 21.5333 31.6333 20.8333 29.5833 20.8333C27.5333 20.8333 25.6167 21.55 24.1167 22.7666C22.1 24.35 20.8333 26.8333 20.8333 29.5833C20.8333 31.2167 21.3 32.7833 22.1 34.0833C22.7167 35.1 23.5167 35.9833 24.4667 36.6667H13.3333C7.5 36.6667 5 33.3333 5 28.3333V14.1667C5 9.16666 7.5 5.83333 13.3333 5.83333H26.6667C32.5 5.83333 35 9.16666 35 14.1667Z" stroke="#065494" stroke-width="1.5" stroke-miterlimit="10" stroke-linecap="round" stroke-linejoin="round"/>
<path d="M11.6665 18.3333H21.6665" stroke="#065494" stroke-width="1.5" stroke-miterlimit="10" stroke-linecap="round" stroke-linejoin="round"/>
<path d="M11.6665 26.6667H16.0332" stroke="#065494" stroke-width="1.5" stroke-miterlimit="10" stroke-linecap="round" stroke-linejoin="round"/>
<path d="M38.3335 29.5833C38.3335 31.2167 37.8668 32.7834 37.0668 34.0834C36.6001 34.8834 36.0168 35.5833 35.3335 36.15C33.8002 37.5167 31.8002 38.3333 29.5835 38.3333C27.6668 38.3333 25.9002 37.7167 24.4668 36.6667C23.5168 35.9833 22.7168 35.1 22.1002 34.0834C21.3002 32.7834 20.8335 31.2167 20.8335 29.5833C20.8335 26.8333 22.1002 24.35 24.1168 22.7666C25.6168 21.55 27.5335 20.8333 29.5835 20.8333C31.6335 20.8333 33.5168 21.5334 35.0002 22.7167C37.0335 24.3167 38.3335 26.8 38.3335 29.5833Z" stroke="#065494" stroke-width="1.5" stroke-miterlimit="10" stroke-linecap="round" stroke-linejoin="round"/>
<path d="M29.5832 33.75C29.5832 31.45 31.4498 29.5833 33.7498 29.5833C31.4498 29.5833 29.5832 27.7167 29.5832 25.4167C29.5832 27.7167 27.7165 29.5833 25.4165 29.5833C27.7165 29.5833 29.5832 31.45 29.5832 33.75Z" stroke="#065494" stroke-width="1.5" stroke-linecap="round" stroke-linejoin="round"/>
</svg>
